<svg xmlns="http://www.w3.org/2000/svg" version="1.1" xmlns:xlink="http://www.w3.org/1999/xlink" xmlns:svgjs="http://svgjs.dev/svgjs" width="1000" height="1000" viewBox="0 0 1000 1000"><rect width="1000" height="1000" fill="#111111"></rect><g transform="matrix(0.7,0,0,0.7,150.00000546874986,106.25)"><svg viewBox="0 0 320 360" data-background-color="#111111" preserveAspectRatio="xMidYMid meet" height="1125" width="1000" xmlns="http://www.w3.org/2000/svg" xmlns:xlink="http://www.w3.org/1999/xlink"><g id="tight-bounds" transform="matrix(1,0,0,1,0.0000025000000505315256,0)"><svg viewBox="0 0 320 360" height="360" width="320"><g><svg></svg></g><g><svg viewBox="0 0 320 360" height="360" width="320"><g><path transform="translate(-19.44751,3.1739) scale(3.53591,3.53591)" d="M67.6 10.7c0.2 0 1.8 0.8 2.7 1.1-0.3 0.1-1-0.2-1.8-0.5 0.2 0 0.6 0.1 1 0.3-0.2-0.2-1.7-0.7-1.9-0.9M52.7 7.6c0.3-0.1 3.8 0.4 5.4 0.5 0.1-0.1-0.2-0.1-0.6-0.2 0.5-0.1 1.5 0.2 2.2 0.3-2.1 0.1-4.4-0.5-6.4-0.3-0.7 0-0.2-0.2-0.6-0.3M49.8 7.6c1.8 0 3.2 0 0.6 0.2-0.3-0.1-0.7-0.1-0.6-0.2M78.1 15.9c0.2 0 1 0.9 1.4 1.2-0.1 0.1-0.9-0.7-1.3-1 0.1 0.1 0 0-0.1-0.2M76.1 14.6c-0.8-0.7-1.1-0.7-1.2-1.1 0.7 0.4 1.2 0.8 1.2 1.1M63.2 8.3c0.1-0.1 0.3 0.1 0.8 0.2-0.6-0.1-0.5 0-0.3 0.2-0.7-0.1-0.9-0.2-0.7-0.4 0.4 0.2 0.5 0.1 0.2 0M34.8 9.5c0-0.1 0.4-0.3 0.7-0.4-0.3 0.2-0.2 0.3 0.3 0.1 0 0.1-0.6 0.3-1 0.5 0.2-0.1 0.4-0.4 0-0.2M65.2 7.3c-0.3 0.1-1.4-0.5-2.5-0.7-0.6-0.2 2.4 0.5 2.5 0.7M6.2 56.7c0.6 2.5 0.2 2.4 0 0M6.3 41.7c0.1-0.4 0.2-1.5 0.3-1.4-0.3 2.4-0.8 3.5-0.9 5.3 0.3-1.6-0.1 0.9-0.2 1.5 0.1 0.8 0.1-0.5 0.3-0.3 0.2 0.3-0.4 4.5-0.2 2.2-0.2 2.1 0 4.4 0.4 5-0.5 3.2 2 10.4 2.5 11.9 0.1 0.1 0-0.5 0.2-0.1 0.2 1.3 1.1 2.2 1.4 3.6 0.3 0.4 1.5 2.6 1.7 3.1 0.4 0.8 0.6 0.7 1 1.5 1.2 2.3 3.1 4.5 4.9 6.6 5.8 6.8 14.7 12.4 24.6 14.4 9.9 2.1 20.3 0.6 28.4-3.3 0.5-0.3 0.4-0.4 1-0.6 2.8-0.9 6.2-3.8 8.1-4.9 0.9-1 3.3-2.7 3.6-3.7 1.7-1.4 3.4-3.7 4.3-5.2 0.5-0.8 0.9-0.8 1.1-1.3-0.1 0 1.6-2.1 2.1-3.3-0.2 0-0.5 0.6-0.5 0 3.6-6.9 5.6-16.2 4.5-22.6 0.2 7.9-1.8 16.7-5.6 22.3-1.7 3.6-5.2 7.5-8.4 10.3-0.5 0.5-1 1.1-1.6 1.5-1.9 1.6-4 2.9-6.2 4.1-5.2 2.9-11 5.4-17.8 5.5 11.7-1 22.2-6.9 28-14.1-4.4 4.3-6.3 6-11.2 8.5-0.4 0.7-3.7 2.1-5.9 2.7 1.3-0.6 4-1.6 4.9-2.4-7.3 3.5-15.4 5.5-23 4.4 2.9 0 7 0.1 10.9-0.6 0.6-0.2 0.9-0.4 1.6-0.5 7.6-1.7 14.9-5.4 20.1-10.6-3 2.7-7.5 5.9-10.4 6.9 2.7-1.5 7.6-4.4 9.2-6.6-3.2 3.2-9.2 6.4-13 7.8-0.6 0.1 0.4-0.4-0.6 0-1.2 0.3-0.7 0.3-1 0.5-4.6 1.3-9.9 2.4-14.3 2-0.8-0.1-1.1-0.3-1.8-0.3-0.8-0.1-1.5-0.1-2.4-0.1-3.5-0.4-7.3-1.8-10.1-3-1.5-0.7-3-1.2-4.5-2.1-1.2-0.7-2.2-1.5-3.2-2.3-3.8-2.8-7-5.6-10-9.6-5.4-7.5-8.2-16.9-7.8-26.2 0.4-9.3 4.1-18.4 10-25.1-0.3 0.3 0.4-0.7 1-1.3 0 0.2-0.1 0.5 0.6-0.2 0.6-0.7-0.2-0.2 0.1-0.6 6.2-6.8 17-12.3 28.1-12.5 0.4-0.3 1.1-0.7 1.9-0.5 0 0.1-0.5 0.1-0.5 0.1 1.1-0.1 2.1-0.1 2.6 0.1 0.1-0.1-0.4-0.2 0-0.2 0.7 0.2 0.9 0 1.3 0.2-0.3 0-0.6 0-0.8 0.1 2.5 0 4.1 0.6 6.6 0.8-1.3-0.3-1.6-0.3-2.6-0.6 1.1 0.2 1.6 0.4 2.1 0.3-0.2 0-0.1-0.3 0.1-0.2 2 0.5 2.2 0.7 4.3 1.4 0.2-0.2-0.9-0.3-1.2-0.6 2 0.7 3.8 1.2 5 2-0.4-0.3-1.6-0.7-2.5-1.1-0.1 0.1 0.3 0.2 0.4 0.4-1-0.5-2.4-1-3.8-1.2 1.2 0.3 2 0.7 2.5 0.9-1.1-0.2-2.5-0.9-4.1-1.2 2.6 0.8 7.5 2.6 10.5 4.2-1.1-0.7-2.4-1.2-3.1-1.6 0.6 0.1 1.3 0.5 1.3 0.3 0.7 0.3 1.6 1 2.1 1.1-0.9-0.6-2.7-1.5-3.3-1.8 7.5 3.4 14.2 9.1 18.5 16.4 0.4 0.7 1 2.3 1.5 2.5-0.1-0.5-0.5-0.8-0.9-1.6 0.2 0 0.2-0.3 0-0.6-0.4-0.5 0 0.4-0.4-0.1-1.8-3.3-4-6.2-7.4-9.4 1.9 1.8 0.5 0.5 0.1-0.1 2.6 2.3 5.6 6.2 6.9 8.2-0.2-0.3-0.3-0.5-0.2-0.5 2.4 4.1 3.9 7.8 5.4 13.1 0.1 0.1 0-0.4 0.2-0.1 1 4.2 1.3 7.7 1.2 10.9 0.8-5.4-1-13.8-4.2-20.4-0.4-0.8-0.4-0.2-0.8-1.1 0-0.3-0.3-0.9-0.5-1.3-4-6.6-8.9-11.3-14.7-15 0.4 0.2 1.2 0.8 1.2 0.7-10.8-7.1-23.3-8.1-33.6-5.9-0.7 0.3-1 0.6-1.8 1 1.5-0.5 2.4-0.6 3.8-0.9 0.3-0.3-1.3 0.1-0.6-0.2 0.1 0.1 1.4-0.2 1.7-0.1 0 0.1-0.4 0.2-0.5 0.3 3.3-0.7 6.7-0.8 9.6-0.6-1.7 0.1-4.8-0.2-5.8 0.3 1-0.1 2.4-0.2 3.3-0.1-1.2 0-3.4 0.1-4.4 0.2-0.1-0.1 1.6-0.3 0.5-0.3-0.5 0.1-1.3 0.1-1.6 0.4-8.6 0.8-17 5.3-22.9 10.6-1.2 1-2.6 2.1-3.5 3.2-2.2 2.5-3.6 5-5.2 7.2 1-2.1 3.2-5.3 5.8-8 2.6-2.7 5.4-5 6.9-6.2 0 0.4 2.4-1.5 3.3-2.1-0.6 0.5 0.4-0.2 0.6-0.1 3.2-1.9 5.8-2.6 8.7-3.7-0.7 0.2-1.3 0.4-1.4 0.3 0.7-0.2 1.1-0.4 1-0.5-2.8 0.8-7.2 2.7-10.7 4.8 6.3-4.3 14.3-6.9 22.2-7 7.9-0.2 15.6 1.8 21.7 5 4.1 1.8 8 5.1 11.1 8.3 0.9 0.8 0.2-0.2 1.5 1.2-0.4-0.2-0.7-0.4-0.2 0.2 0.8 0.9-0.2-0.7 1.1 0.9-0.1 0-0.5-0.5-0.5-0.3 3.5 3.1 6.2 8.7 7.8 12.4-0.4-1.5-1.4-3.6-2.2-5.1 2.4 4.4 3.2 7 4.2 10.9 0.4 0.3-0.2-1.4 0.2-0.6 0.1 0.6 0.2 2.5 0.6 2.8-0.3-1.9-0.8-4.2-1.2-4.6 0.3 0.2-0.5-2.3-1-2.9-0.2-1.6-1.6-4.4-2.8-6.5-4.3-8.4-12-15.3-20.6-19.1 0-0.2-0.5-0.4-0.7-0.6-8.5-3.6-18.7-4.6-28.5-2.3-9.9 2.4-19.2 8.1-25.8 16.3 0.3-1 2.8-2.9 2.9-3.7-2.9 3.1-6 7.2-8.1 11.6-2.2 4.4-3.4 8.9-3.9 12.2" fill="#ffffff" fill-rule="nonzero" stroke="none" stroke-width="1" stroke-linecap="butt" stroke-linejoin="miter" stroke-miterlimit="10" stroke-dasharray="" stroke-dashoffset="0" font-family="none" font-weight="none" font-size="none" text-anchor="none" style="mix-blend-mode: normal" data-fill-palette-color="tertiary"></path></g><g transform="matrix(1,0,0,1,87.9867435399083,90)"><svg viewBox="0 0 144.0265129201834 180" height="180" width="144.0265129201834"><g><svg viewBox="0 0 224 279.94845658968734" height="180" width="144.0265129201834"><g transform="matrix(1,0,0,1,0,236.6936405786134)"><svg viewBox="0 0 224 43.25481601107394" height="43.25481601107394" width="224"><g><svg viewBox="0 0 224 43.25481601107394" height="43.25481601107394" width="224"><g><svg viewBox="0 0 224 43.25481601107394" height="43.25481601107394" width="224"><g transform="matrix(1,0,0,1,0,0)"><svg width="224" viewBox="1.17 -31.76 211.62 40.870000000000005" height="43.25481601107394" data-palette-color="#111111"><path d="M9.3 0.61Q12.18 0.61 14.55-0.5 16.92-1.61 18.29-3.6 19.65-5.59 19.65-8.08L19.65-8.08Q19.65-10.13 18.62-11.71 17.58-13.28 16.1-14.37 14.62-15.45 12.13-16.92L12.13-16.92Q9.84-18.29 8.51-19.23 7.18-20.17 6.27-21.47 5.37-22.78 5.37-24.44L5.37-24.44Q5.37-25.98 6.01-27.08 6.64-28.17 7.73-28.74 8.81-29.3 10.13-29.3L10.13-29.3Q11.55-29.3 12.92-28.52 14.28-27.73 14.79-26.76L14.79-26.76 15.43-21.44 17.21-21.22 17.87-28.44Q16.55-29.69 14.72-30.35 12.89-31.01 10.86-31.01L10.86-31.01Q8.62-31.01 6.59-30.04 4.57-29.08 3.31-27.23 2.05-25.39 2.05-22.9L2.05-22.9Q2.05-20.73 3.11-19.07 4.17-17.41 5.69-16.28 7.2-15.16 9.72-13.65L9.72-13.65Q11.87-12.38 13.12-11.47 14.38-10.57 15.22-9.38 16.06-8.18 16.06-6.69L16.06-6.69Q16.06-4.98 15.22-3.78 14.38-2.59 13.04-1.99 11.69-1.39 10.23-1.39L10.23-1.39Q8.35-1.39 6.73-2.23 5.1-3.08 4.35-4.42L4.35-4.42 3.54-9.38 1.71-9.64 1.17-2.91Q2.42-1.39 4.59-0.39 6.76 0.61 9.3 0.61L9.3 0.61ZM32.32 9.11L32.57 7.62 28.76 6.98 28.76-16.16Q30-17.46 31.24-18.26 32.47-19.07 33.98-19.07L33.98-19.07Q36.74-19.07 38.1-16.67 39.45-14.28 39.45-9.86L39.45-9.86Q39.45-7.3 38.69-5.42 37.94-3.54 36.59-2.55 35.25-1.56 33.54-1.56L33.54-1.56Q32.1-1.56 31.27-1.68 30.44-1.81 29.61-2.12L29.61-2.12 29.73 0.22Q31.22 0.49 32.22 0.49L32.22 0.49Q35.28 0.49 37.72-1 40.16-2.49 41.54-5.18 42.92-7.86 42.92-11.28L42.92-11.28Q42.92-14.82 41.98-17.13 41.04-19.43 39.39-20.53 37.74-21.63 35.59-21.63L35.59-21.63Q33.42-21.63 31.67-20.43 29.93-19.24 28.76-17.63L28.76-17.63 28.59-17.63 28.81-20.97 28.49-21.31 22.02-20.63 21.82-19.34 25.58-18.41 25.58 6.96 21.87 7.69 21.73 9.11 32.32 9.11ZM55.78 0L56.03-1.42 52.49-2.12 52.49-16.36Q53.8-17.8 55.12-18.46 56.44-19.12 58.08-19.12L58.08-19.12Q59.93-19.12 61.13-17.87 62.32-16.63 62.32-13.87L62.32-13.87 62.32-13.7 62.25-2.1 58.91-1.32 58.69 0 68.72 0 68.94-1.42 65.47-2.1 65.47-14.36Q65.47-18.33 64-20.04 62.52-21.75 59.79-21.75L59.79-21.75Q57.81-21.75 55.87-20.68 53.93-19.6 52.36-17.9L52.36-17.9 52.17-17.9 52.49-20.48 52.49-31.35 52.09-31.76 45.65-31.25 45.43-29.93 49.26-28.91 49.26-2.12 45.5-1.39 45.23 0 55.78 0ZM80.12 0.73Q82.46 0.73 84.42-0.15 86.37-1.03 87.66-2.54L87.66-2.54 87.2-3.61Q85.83-2.69 84.59-2.29 83.34-1.9 81.8-1.9L81.8-1.9Q79.51-1.9 77.95-3.15 76.38-4.39 75.62-6.42 74.85-8.45 74.8-10.86L74.8-10.86 86.61-11.01Q86.78-11.65 86.91-12.63 87.03-13.62 87.03-14.21L87.03-14.21Q87.03-17.92 85.38-19.78 83.73-21.63 80.93-21.63L80.93-21.63Q78.51-21.63 76.3-20.28 74.09-18.92 72.72-16.33 71.35-13.75 71.35-10.25L71.35-10.25Q71.35-6.69 72.55-4.21 73.75-1.73 75.74-0.5 77.73 0.73 80.12 0.73L80.12 0.73ZM79.73-19.75Q81.51-19.75 82.55-18.43 83.59-17.11 83.59-14.89L83.59-14.89Q83.59-13.43 83.42-12.94L83.42-12.94 74.85-12.38Q74.89-14.77 75.57-16.43 76.24-18.09 77.32-18.92 78.41-19.75 79.73-19.75L79.73-19.75ZM102.5 0L102.7-1.49 97.08-2.15 97.08-11.33Q97.35-13.31 97.99-14.93 98.62-16.55 99.51-17.5 100.41-18.46 101.38-18.46L101.38-18.46Q102.75-18.46 103.99-17.19L103.99-17.19Q104.7-17.68 105.1-18.29 105.51-18.9 105.51-19.51L105.51-19.51Q105.51-20.48 104.78-21.17 104.04-21.85 102.8-21.85L102.8-21.85Q101.63-21.85 100.49-21.02 99.36-20.19 98.44-18.64 97.52-17.09 96.94-15.01L96.94-15.01 96.6-15.01 96.94-21 96.55-21.41 90.22-20.7 90-19.43 93.91-18.48 93.91-2.1 90.13-1.27 89.93 0 102.5 0ZM117.49 0.66Q120.15 0.66 122.4-0.78 124.65-2.22 125.96-4.81 127.28-7.4 127.28-10.72L127.28-10.72Q127.28-13.84 126.16-16.36 125.04-18.87 122.95-20.31 120.86-21.75 118.1-21.75L118.1-21.75Q115.34-21.75 113-20.34 110.66-18.92 109.28-16.27 107.9-13.62 107.9-10.03L107.9-10.03Q107.9-6.88 109.08-4.46 110.27-2.03 112.45-0.68 114.64 0.66 117.49 0.66L117.49 0.66ZM117.05-19.68Q119.23-19.68 120.76-18.15 122.3-16.63 123.07-14.23 123.84-11.84 123.84-9.28L123.84-9.28Q123.84-7.1 123.18-5.29 122.52-3.47 121.28-2.39 120.03-1.32 118.35-1.32L118.35-1.32Q116.1-1.32 114.51-2.77 112.93-4.22 112.13-6.62 111.34-9.01 111.34-11.79L111.34-11.79Q111.34-13.96 112.01-15.77 112.68-17.58 113.98-18.63 115.27-19.68 117.05-19.68L117.05-19.68ZM137.75 0.61Q140.63 0.61 143-0.5 145.37-1.61 146.74-3.6 148.11-5.59 148.11-8.08L148.11-8.08Q148.11-10.13 147.07-11.71 146.03-13.28 144.55-14.37 143.08-15.45 140.59-16.92L140.59-16.92Q138.29-18.29 136.96-19.23 135.63-20.17 134.73-21.47 133.82-22.78 133.82-24.44L133.82-24.44Q133.82-25.98 134.46-27.08 135.09-28.17 136.18-28.74 137.27-29.3 138.58-29.3L138.58-29.3Q140-29.3 141.37-28.52 142.73-27.73 143.25-26.76L143.25-26.76 143.88-21.44 145.66-21.22 146.32-28.44Q145-29.69 143.17-30.35 141.34-31.01 139.32-31.01L139.32-31.01Q137.07-31.01 135.04-30.04 133.02-29.08 131.76-27.23 130.5-25.39 130.5-22.9L130.5-22.9Q130.5-20.73 131.56-19.07 132.63-17.41 134.14-16.28 135.65-15.16 138.17-13.65L138.17-13.65Q140.32-12.38 141.57-11.47 142.83-10.57 143.67-9.38 144.52-8.18 144.52-6.69L144.52-6.69Q144.52-4.98 143.67-3.78 142.83-2.59 141.49-1.99 140.15-1.39 138.68-1.39L138.68-1.39Q136.8-1.39 135.18-2.23 133.55-3.08 132.8-4.42L132.8-4.42 131.99-9.38 130.16-9.64 129.62-2.91Q130.87-1.39 133.04-0.39 135.21 0.61 137.75 0.61L137.75 0.61ZM159.41 0.73Q160.92 0.73 162.41 0.28 163.9-0.17 165.07-0.9 166.24-1.64 166.88-2.49L166.88-2.49 166.36-3.61Q164-1.68 161.02-1.68L161.02-1.68Q158.82-1.68 157.21-2.99 155.6-4.3 154.74-6.58 153.89-8.86 153.89-11.72L153.89-11.72Q153.89-14.23 154.57-16.05 155.26-17.87 156.43-18.82 157.6-19.78 159.06-19.78L159.06-19.78Q160.7-19.78 161.75-18.6 162.8-17.43 163.56-15.31L163.56-15.31Q165.88-15.7 165.88-17.72L165.88-17.72Q165.88-18.75 165.29-19.65 164.7-20.56 163.45-21.12 162.19-21.68 160.24-21.68L160.24-21.68Q157.58-21.68 155.34-20.23 153.11-18.77 151.79-16.09 150.47-13.4 150.47-9.89L150.47-9.89Q150.47-6.93 151.55-4.52 152.62-2.1 154.65-0.68 156.67 0.73 159.41 0.73L159.41 0.73ZM174.03 0.61Q175.79 0.61 177.19-0.01 178.59-0.63 179.5-1.5 180.4-2.37 180.81-3.17L180.81-3.17 181.01-3.17 181.01-2.83Q181.01-1.49 181.88-0.52 182.74 0.44 184.43 0.44L184.43 0.44Q185.09 0.44 185.6 0.35 186.11 0.27 186.85 0.07L186.85 0.07 187.33-0.05 187.55-1.51 186.14-1.78Q185.06-1.95 184.54-2.42 184.01-2.88 183.85-3.61 183.7-4.35 183.7-5.62L183.7-5.62 183.7-14.18Q183.7-18.02 182.26-19.81 180.81-21.61 177.67-21.61L177.67-21.61Q175.91-21.61 174.1-20.9 172.29-20.19 171.12-19.03 169.95-17.87 169.95-16.63L169.95-16.63Q169.95-15.38 170.76-14.9 171.56-14.43 172.71-14.43L172.71-14.43Q172.83-16.43 173.1-17.55 173.37-18.68 174.02-19.26 174.66-19.85 175.91-19.85L175.91-19.85Q178.42-19.85 179.51-18.04 180.6-16.24 180.6-12.89L180.6-12.89 180.6-11.25Q176.76-11.08 174.16-10.12 171.56-9.16 170.28-7.56 169-5.96 169-3.88L169-3.88Q169-2.51 169.69-1.49 170.39-0.46 171.54 0.07 172.69 0.61 174.03 0.61L174.03 0.61ZM180.6-10.01L180.6-4.57Q179.94-3.39 178.59-2.56 177.25-1.73 175.64-1.73L175.64-1.73Q174.66-1.73 173.93-2.17 173.2-2.61 172.82-3.33 172.44-4.05 172.44-4.81L172.44-4.81Q172.44-9.13 180.6-10.01L180.6-10.01ZM199.51 0L199.76-1.42 196.19-2.1 196.19-16.36Q197.66-17.82 198.98-18.44 200.29-19.07 202-19.07L202-19.07Q203.83-19.07 204.99-17.79 206.15-16.5 206.15-13.87L206.15-13.87 206.15-2.1 202.74-1.27 202.54 0 212.62 0 212.79-1.42 209.35-2.1 209.35-14.65Q209.35-18.16 207.84-19.95 206.33-21.73 203.71-21.73L203.71-21.73Q201.49-21.73 199.42-20.53 197.34-19.34 196.12-17.82L196.12-17.82 195.92-17.82 196.17-21.04 195.88-21.39 189.41-20.65 189.24-19.38 193.02-18.43 193.02-2.1 189.28-1.27 189.09 0 199.51 0Z" opacity="1" transform="matrix(1,0,0,1,0,0)" fill="#111111" class="undefined-text-0" data-fill-palette-color="primary" id="text-0"></path></svg></g></svg></g></svg></g></svg></g><g transform="matrix(1,0,0,1,47.87599081440909,0)"><svg viewBox="0 0 128.24801837118181 226.4822166339831" height="226.4822166339831" width="128.24801837118181"><g><svg xmlns="http://www.w3.org/2000/svg" xmlns:xlink="http://www.w3.org/1999/xlink" version="1.1" x="0" y="0" viewBox="0 0.00015468466885673778 56.626000000000005 99.99984531533114" enable-background="new 0 0 56.626 100" xml:space="preserve" width="128.24801837118181" height="226.4822166339831" class="icon-icon-0" data-fill-palette-color="accent" id="icon-0"><path d="M26.341 71.348c0.319 0.186 0.737 0.073 0.923-0.249l1.023-1.776c0.188-0.319 0.075-0.737-0.246-0.923L5.874 55.598c-0.321-0.183-0.735-0.07-0.919 0.249l-1.027 1.776c-0.184 0.319-0.074 0.733 0.248 0.919L26.341 71.348z" fill="#e77917" data-fill-palette-color="accent"></path><path d="M6.661 72.513c0.321 0.187 0.735 0.073 0.919-0.246l3.45-5.974-6.055-3.496-3.447 5.974c-0.186 0.32-0.074 0.738 0.246 0.92L6.661 72.513z" fill="#e77917" data-fill-palette-color="accent"></path><path d="M13.001 76.174l4.888 2.822c0.319 0.186 0.733 0.073 0.919-0.246l3.449-5.971-6.053-3.5-3.452 5.979C12.571 75.573 12.679 75.987 13.001 76.174z" fill="#e77917" data-fill-palette-color="accent"></path><path d="M52.575 90.716h-6.314c6.383-6.097 10.365-14.687 10.365-24.213 0-8.908-3.481-17-9.154-22.998-0.707 3.266-2.996 5.942-6.023 7.188 3.669 4.241 5.894 9.766 5.894 15.81 0 13.37-10.841 24.213-24.21 24.213H4.047C1.824 90.716 0 92.537 0 94.763V100h56.626v-5.237C56.626 92.537 54.803 90.716 52.575 90.716z" fill="#e77917" data-fill-palette-color="accent"></path><circle cx="37.631" cy="41.381" r="7.3" fill="#e77917" data-fill-palette-color="accent"></circle><path d="M25.102 63.077l7.501-12.986c-3.007-1.743-5.037-4.989-5.037-8.71 0-5.55 4.516-10.067 10.066-10.067 1.832 0 3.547 0.498 5.028 1.358l5.835-10.107c0.278-0.482 0.334-1.035 0.199-1.536-0.132-0.5-0.456-0.951-0.938-1.229l-1.149-0.665L52.876 8.28l0.487 0.284c0.372 0.216 0.852 0.086 1.067-0.284l1.185-2.052c0.212-0.369 0.087-0.848-0.284-1.063l-8.747-5.061c-0.371-0.215-0.852-0.085-1.065 0.287l-1.185 2.051c-0.215 0.37-0.085 0.849 0.284 1.064l0.487 0.283-6.271 10.86-1.015-0.586c-0.48-0.277-1.034-0.333-1.534-0.197-0.5 0.134-0.951 0.457-1.23 0.939L11.664 55.32 25.102 63.077z" fill="#e77917" data-fill-palette-color="accent"></path></svg></g></svg></g><g></g></svg></g></svg></g></svg></g><defs></defs></svg><rect width="320" height="360" fill="none" stroke="none" visibility="hidden"></rect></g></svg></g></svg>